<?xml version="1.0" encoding="UTF-8" standalone="no"?>
<svg
   xmlns:dc="http://purl.org/dc/elements/1.1/"
   xmlns:cc="http://creativecommons.org/ns#"
   xmlns:rdf="http://www.w3.org/1999/02/22-rdf-syntax-ns#"
   xmlns:svg="http://www.w3.org/2000/svg"
   xmlns="http://www.w3.org/2000/svg"
   xmlns:sodipodi="http://sodipodi.sourceforge.net/DTD/sodipodi-0.dtd"
   xmlns:inkscape="http://www.inkscape.org/namespaces/inkscape"
   version="1.1"
   id="Layer_1"
   width="13.234"
   height="19.563"
   viewBox="0 0 13.234 19.563"
   style="overflow:visible;enable-background:new 0 0 13.234 19.563;"
   xml:space="preserve"
   sodipodi:version="0.32"
   inkscape:version="0.46"
   sodipodi:docname="3.svg"
   inkscape:output_extension="org.inkscape.output.svg.inkscape"><metadata
   id="metadata10"><rdf:RDF><cc:Work
       rdf:about=""><dc:format>image/svg+xml</dc:format><dc:type
         rdf:resource="http://purl.org/dc/dcmitype/StillImage" /></cc:Work></rdf:RDF></metadata><defs
   id="defs8"><inkscape:perspective
     sodipodi:type="inkscape:persp3d"
     inkscape:vp_x="0 : 9.7814999 : 1"
     inkscape:vp_y="0 : 1000 : 0"
     inkscape:vp_z="13.234 : 9.7814999 : 1"
     inkscape:persp3d-origin="6.6170001 : 6.5209999 : 1"
     id="perspective12" /></defs><sodipodi:namedview
   inkscape:window-height="675"
   inkscape:window-width="640"
   inkscape:pageshadow="2"
   inkscape:pageopacity="0.0"
   guidetolerance="10.0"
   gridtolerance="10.0"
   objecttolerance="10.0"
   borderopacity="1.0"
   bordercolor="#666666"
   pagecolor="#ffffff"
   id="base"
   showgrid="false"
   inkscape:zoom="23.61601"
   inkscape:cx="6.6170001"
   inkscape:cy="9.7814999"
   inkscape:window-x="22"
   inkscape:window-y="22"
   inkscape:current-layer="Layer_1" />
<g
   id="g3"
   transform="translate(1,1)">
	<path
   style="fill:#231f20"
   d="M 0,12.719 L 2.109,12.438 C 2.351,13.633 2.76,14.495 3.339,15.022 C 3.917,15.549 4.626,15.813 5.466,15.813 C 6.462,15.813 7.299,15.469 7.98,14.783 C 8.66,14.095 9,13.244 9,12.229 C 9,11.261 8.684,10.462 8.052,9.833 C 7.42,9.205 6.617,8.891 5.643,8.891 C 5.245,8.891 4.75,8.969 4.157,9.125 L 4.391,7.266 C 4.532,7.282 4.644,7.289 4.73,7.289 C 5.625,7.289 6.43,7.055 7.146,6.586 C 7.862,6.117 8.22,5.395 8.22,4.418 C 8.22,3.645 7.959,3.004 7.439,2.496 C 6.916,1.988 6.243,1.734 5.419,1.734 C 4.603,1.734 3.922,1.992 3.378,2.507 C 2.834,3.022 2.483,3.796 2.328,4.827 L 0.219,4.453 C 0.476,3.039 1.061,1.943 1.973,1.166 C 2.885,0.389 4.019,0 5.375,0 C 6.31,0 7.171,0.201 7.959,0.604 C 8.746,1.007 9.348,1.556 9.765,2.251 C 10.182,2.946 10.39,3.685 10.39,4.467 C 10.39,5.209 10.191,5.885 9.792,6.495 C 9.394,7.104 8.804,7.589 8.022,7.948 C 9.038,8.182 9.827,8.669 10.389,9.408 C 10.951,10.146 11.232,11.071 11.232,12.18 C 11.232,13.681 10.687,14.953 9.594,15.996 C 8.502,17.04 7.121,17.561 5.451,17.561 C 3.945,17.561 2.695,17.112 1.701,16.212 C 0.707,15.312 0.141,14.149 0,12.719 z"
   id="path5" />
</g>
</svg>