<?xml version="1.0" encoding="UTF-8" standalone="no"?>
<svg
   xmlns:dc="http://purl.org/dc/elements/1.1/"
   xmlns:cc="http://creativecommons.org/ns#"
   xmlns:rdf="http://www.w3.org/1999/02/22-rdf-syntax-ns#"
   xmlns:svg="http://www.w3.org/2000/svg"
   xmlns="http://www.w3.org/2000/svg"
   xmlns:sodipodi="http://sodipodi.sourceforge.net/DTD/sodipodi-0.dtd"
   xmlns:inkscape="http://www.inkscape.org/namespaces/inkscape"
   version="1.1"
   id="Layer_1"
   width="13.375"
   height="19.25"
   viewBox="0 0 13.375 19.25"
   style="overflow:visible;enable-background:new 0 0 13.375 19.25;"
   xml:space="preserve"
   sodipodi:version="0.32"
   inkscape:version="0.46"
   sodipodi:docname="5.svg"
   inkscape:output_extension="org.inkscape.output.svg.inkscape"><metadata
   id="metadata10"><rdf:RDF><cc:Work
       rdf:about=""><dc:format>image/svg+xml</dc:format><dc:type
         rdf:resource="http://purl.org/dc/dcmitype/StillImage" /></cc:Work></rdf:RDF></metadata><defs
   id="defs8"><inkscape:perspective
     sodipodi:type="inkscape:persp3d"
     inkscape:vp_x="0 : 9.625 : 1"
     inkscape:vp_y="0 : 1000 : 0"
     inkscape:vp_z="13.375 : 9.625 : 1"
     inkscape:persp3d-origin="6.6875 : 6.4166667 : 1"
     id="perspective12" /></defs><sodipodi:namedview
   inkscape:window-height="675"
   inkscape:window-width="640"
   inkscape:pageshadow="2"
   inkscape:pageopacity="0.0"
   guidetolerance="10.0"
   gridtolerance="10.0"
   objecttolerance="10.0"
   borderopacity="1.0"
   bordercolor="#666666"
   pagecolor="#ffffff"
   id="base"
   showgrid="false"
   inkscape:zoom="24"
   inkscape:cx="6.6875"
   inkscape:cy="9.625"
   inkscape:window-x="242"
   inkscape:window-y="242"
   inkscape:current-layer="Layer_1" />
<g
   id="g3"
   transform="translate(1,1)">
	<path
   style="fill:#231f20"
   d="M 0,12.453 L 2.219,12.265 C 2.383,13.344 2.761,14.157 3.355,14.7 C 3.949,15.244 4.669,15.515 5.517,15.515 C 6.538,15.515 7.397,15.132 8.095,14.366 C 8.793,13.599 9.142,12.583 9.142,11.316 C 9.142,10.112 8.807,9.162 8.136,8.465 C 7.465,7.771 6.58,7.422 5.481,7.422 C 4.797,7.422 4.184,7.577 3.641,7.887 C 3.099,8.197 2.671,8.6 2.359,9.094 L 0.375,8.828 L 2.047,0 L 10.563,0 L 10.563,2.016 L 3.726,2.016 L 2.803,6.639 C 3.832,5.921 4.912,5.563 6.042,5.563 C 7.539,5.563 8.802,6.083 9.831,7.123 C 10.86,8.162 11.375,9.498 11.375,11.132 C 11.375,12.688 10.922,14.031 10.018,15.164 C 8.918,16.556 7.416,17.251 5.512,17.251 C 3.951,17.251 2.678,16.813 1.691,15.938 C 0.704,15.063 0.141,13.899 0,12.453 z"
   id="path5" />
</g>
</svg>