<?xml version="1.0" encoding="UTF-8" standalone="no"?>
<svg
   xmlns:dc="http://purl.org/dc/elements/1.1/"
   xmlns:cc="http://creativecommons.org/ns#"
   xmlns:rdf="http://www.w3.org/1999/02/22-rdf-syntax-ns#"
   xmlns:svg="http://www.w3.org/2000/svg"
   xmlns="http://www.w3.org/2000/svg"
   xmlns:sodipodi="http://sodipodi.sourceforge.net/DTD/sodipodi-0.dtd"
   xmlns:inkscape="http://www.inkscape.org/namespaces/inkscape"
   version="1.1"
   id="Layer_1"
   width="13.344"
   height="19.563"
   viewBox="0 0 13.344 19.563"
   style="overflow:visible;enable-background:new 0 0 13.344 19.563;"
   xml:space="preserve"
   sodipodi:version="0.32"
   inkscape:version="0.46"
   sodipodi:docname="6.svg"
   inkscape:output_extension="org.inkscape.output.svg.inkscape"><metadata
   id="metadata10"><rdf:RDF><cc:Work
       rdf:about=""><dc:format>image/svg+xml</dc:format><dc:type
         rdf:resource="http://purl.org/dc/dcmitype/StillImage" /></cc:Work></rdf:RDF></metadata><defs
   id="defs8"><inkscape:perspective
     sodipodi:type="inkscape:persp3d"
     inkscape:vp_x="0 : 9.7814999 : 1"
     inkscape:vp_y="0 : 1000 : 0"
     inkscape:vp_z="13.344 : 9.7814999 : 1"
     inkscape:persp3d-origin="6.6719999 : 6.5209999 : 1"
     id="perspective12" /></defs><sodipodi:namedview
   inkscape:window-height="675"
   inkscape:window-width="640"
   inkscape:pageshadow="2"
   inkscape:pageopacity="0.0"
   guidetolerance="10.0"
   gridtolerance="10.0"
   objecttolerance="10.0"
   borderopacity="1.0"
   bordercolor="#666666"
   pagecolor="#ffffff"
   id="base"
   showgrid="false"
   inkscape:zoom="23.61601"
   inkscape:cx="6.6719999"
   inkscape:cy="9.7814999"
   inkscape:window-x="264"
   inkscape:window-y="264"
   inkscape:current-layer="Layer_1" />
<g
   id="g3"
   transform="translate(1,1)">
	<path
   style="fill:#231f20"
   d="M 11.031,4.281 L 8.938,4.453 C 8.75,3.622 8.484,3.018 8.141,2.641 C 7.57,2.036 6.867,1.734 6.031,1.734 C 5.359,1.734 4.766,1.922 4.254,2.297 C 3.595,2.782 3.074,3.49 2.691,4.421 C 2.308,5.351 2.109,6.676 2.093,8.395 C 2.601,7.622 3.222,7.047 3.957,6.672 C 4.691,6.297 5.461,6.109 6.267,6.109 C 7.673,6.109 8.871,6.628 9.86,7.664 C 10.849,8.701 11.343,10.04 11.343,11.684 C 11.343,12.763 11.111,13.767 10.646,14.694 C 10.181,15.621 9.542,16.332 8.73,16.824 C 7.918,17.316 6.996,17.563 5.964,17.563 C 4.206,17.563 2.773,16.916 1.663,15.622 C 0.555,14.326 0,12.193 0,9.222 C 0,5.897 0.613,3.48 1.839,1.971 C 2.908,0.657 4.349,0 6.16,0 C 7.511,0 8.617,0.38 9.48,1.138 C 10.342,1.896 10.859,2.944 11.031,4.281 z M 2.422,11.692 C 2.422,12.421 2.576,13.118 2.884,13.784 C 3.192,14.45 3.621,14.957 4.173,15.305 C 4.724,15.654 5.306,15.827 5.92,15.827 C 6.814,15.827 7.58,15.467 8.217,14.746 C 8.854,14.025 9.172,13.047 9.172,11.809 C 9.172,10.619 8.858,9.681 8.228,8.996 C 7.598,8.311 6.802,7.968 5.838,7.968 C 4.886,7.968 4.079,8.311 3.416,8.996 C 2.753,9.681 2.422,10.581 2.422,11.692 z"
   id="path5" />
</g>
</svg>