<?xml version="1.0" encoding="UTF-8" standalone="no"?>
<svg
   xmlns:dc="http://purl.org/dc/elements/1.1/"
   xmlns:cc="http://creativecommons.org/ns#"
   xmlns:rdf="http://www.w3.org/1999/02/22-rdf-syntax-ns#"
   xmlns:svg="http://www.w3.org/2000/svg"
   xmlns="http://www.w3.org/2000/svg"
   xmlns:sodipodi="http://sodipodi.sourceforge.net/DTD/sodipodi-0.dtd"
   xmlns:inkscape="http://www.inkscape.org/namespaces/inkscape"
   version="1.1"
   id="Layer_1"
   width="13.312"
   height="19.563"
   viewBox="0 0 13.312 19.563"
   style="overflow:visible;enable-background:new 0 0 13.312 19.563;"
   xml:space="preserve"
   sodipodi:version="0.32"
   inkscape:version="0.46"
   sodipodi:docname="8.svg"
   inkscape:output_extension="org.inkscape.output.svg.inkscape"><metadata
   id="metadata10"><rdf:RDF><cc:Work
       rdf:about=""><dc:format>image/svg+xml</dc:format><dc:type
         rdf:resource="http://purl.org/dc/dcmitype/StillImage" /></cc:Work></rdf:RDF></metadata><defs
   id="defs8"><inkscape:perspective
     sodipodi:type="inkscape:persp3d"
     inkscape:vp_x="0 : 9.7814999 : 1"
     inkscape:vp_y="0 : 1000 : 0"
     inkscape:vp_z="13.312 : 9.7814999 : 1"
     inkscape:persp3d-origin="6.6560001 : 6.5209999 : 1"
     id="perspective12" /></defs><sodipodi:namedview
   inkscape:window-height="675"
   inkscape:window-width="640"
   inkscape:pageshadow="2"
   inkscape:pageopacity="0.0"
   guidetolerance="10.0"
   gridtolerance="10.0"
   objecttolerance="10.0"
   borderopacity="1.0"
   bordercolor="#666666"
   pagecolor="#ffffff"
   id="base"
   showgrid="false"
   inkscape:zoom="23.61601"
   inkscape:cx="6.6560001"
   inkscape:cy="9.7814999"
   inkscape:window-x="220"
   inkscape:window-y="220"
   inkscape:current-layer="Layer_1" />
<g
   id="g3"
   transform="translate(1,1)">
	<path
   style="fill:#231f20"
   d="M 3.279,7.947 C 2.399,7.626 1.748,7.169 1.323,6.574 C 0.898,5.979 0.688,5.267 0.688,4.438 C 0.688,3.186 1.137,2.133 2.035,1.28 C 2.933,0.427 4.127,0 5.619,0 C 7.118,0 8.325,0.437 9.239,1.309 C 10.153,2.182 10.61,3.245 10.61,4.497 C 10.61,5.295 10.401,5.99 9.982,6.581 C 9.563,7.171 8.928,7.626 8.076,7.947 C 9.131,8.291 9.935,8.846 10.486,9.612 C 11.037,10.378 11.313,11.293 11.313,12.356 C 11.313,13.826 10.794,15.061 9.756,16.061 C 8.718,17.062 7.352,17.562 5.657,17.562 C 3.962,17.562 2.596,17.06 1.558,16.055 C 0.519,15.052 0,13.799 0,12.298 C 0,11.18 0.284,10.243 0.852,9.489 C 1.42,8.735 2.229,8.221 3.279,7.947 z M 2.172,12.309 C 2.172,12.912 2.313,13.494 2.594,14.057 C 2.875,14.62 3.298,15.056 3.861,15.365 C 4.424,15.675 5.028,15.829 5.674,15.829 C 6.683,15.829 7.513,15.505 8.164,14.855 C 8.815,14.206 9.141,13.38 9.141,12.379 C 9.141,11.362 8.806,10.522 8.135,9.857 C 7.464,9.192 6.62,8.859 5.604,8.859 C 4.611,8.859 3.791,9.188 3.143,9.844 C 2.495,10.502 2.172,11.323 2.172,12.309 z M 2.859,4.367 C 2.859,5.181 3.118,5.847 3.637,6.365 C 4.156,6.882 4.834,7.14 5.672,7.14 C 6.486,7.14 7.151,6.883 7.665,6.37 C 8.18,5.857 8.438,5.229 8.438,4.484 C 8.438,3.709 8.173,3.056 7.643,2.528 C 7.113,1.999 6.448,1.734 5.649,1.734 C 4.842,1.734 4.176,1.993 3.649,2.509 C 3.123,3.027 2.859,3.646 2.859,4.367 z"
   id="path5" />
</g>
</svg>