<?xml version="1.0" encoding="UTF-8" standalone="no"?>
<svg
   xmlns:dc="http://purl.org/dc/elements/1.1/"
   xmlns:cc="http://creativecommons.org/ns#"
   xmlns:rdf="http://www.w3.org/1999/02/22-rdf-syntax-ns#"
   xmlns:svg="http://www.w3.org/2000/svg"
   xmlns="http://www.w3.org/2000/svg"
   xmlns:sodipodi="http://sodipodi.sourceforge.net/DTD/sodipodi-0.dtd"
   xmlns:inkscape="http://www.inkscape.org/namespaces/inkscape"
   version="1.1"
   id="Layer_1"
   width="13.282"
   height="19.563"
   viewBox="0 0 13.282 19.563"
   style="overflow:visible;enable-background:new 0 0 13.282 19.563;"
   xml:space="preserve"
   sodipodi:version="0.32"
   inkscape:version="0.46"
   sodipodi:docname="9.svg"
   inkscape:output_extension="org.inkscape.output.svg.inkscape"><metadata
   id="metadata10"><rdf:RDF><cc:Work
       rdf:about=""><dc:format>image/svg+xml</dc:format><dc:type
         rdf:resource="http://purl.org/dc/dcmitype/StillImage" /></cc:Work></rdf:RDF></metadata><defs
   id="defs8"><inkscape:perspective
     sodipodi:type="inkscape:persp3d"
     inkscape:vp_x="0 : 9.7814999 : 1"
     inkscape:vp_y="0 : 1000 : 0"
     inkscape:vp_z="13.282 : 9.7814999 : 1"
     inkscape:persp3d-origin="6.6409998 : 6.5209999 : 1"
     id="perspective12" /></defs><sodipodi:namedview
   inkscape:window-height="675"
   inkscape:window-width="640"
   inkscape:pageshadow="2"
   inkscape:pageopacity="0.0"
   guidetolerance="10.0"
   gridtolerance="10.0"
   objecttolerance="10.0"
   borderopacity="1.0"
   bordercolor="#666666"
   pagecolor="#ffffff"
   id="base"
   showgrid="false"
   inkscape:zoom="23.61601"
   inkscape:cx="6.6409998"
   inkscape:cy="9.7814999"
   inkscape:window-x="176"
   inkscape:window-y="176"
   inkscape:current-layer="Layer_1" />
<g
   id="g3"
   transform="translate(1,1)">
	<path
   style="fill:#231f20"
   d="M 0.313,13.297 L 2.344,13.109 C 2.515,14.062 2.843,14.754 3.326,15.183 C 3.809,15.613 4.429,15.828 5.184,15.828 C 5.831,15.828 6.4,15.68 6.889,15.382 C 7.379,15.085 7.779,14.688 8.088,14.191 C 8.397,13.694 8.657,13.023 8.868,12.178 C 9.078,11.333 9.183,10.473 9.183,9.598 C 9.183,9.504 9.179,9.364 9.171,9.176 C 8.75,9.848 8.174,10.393 7.445,10.811 C 6.716,11.229 5.926,11.438 5.076,11.438 C 3.657,11.438 2.455,10.921 1.472,9.89 C 0.491,8.856 0,7.496 0,5.807 C 0,4.063 0.513,2.66 1.539,1.596 C 2.564,0.532 3.85,0 5.395,0 C 6.511,0 7.53,0.302 8.455,0.903 C 9.379,1.506 10.081,2.364 10.561,3.478 C 11.04,4.592 11.281,6.206 11.281,8.317 C 11.281,10.515 11.042,12.265 10.567,13.567 C 10.09,14.87 9.382,15.861 8.442,16.542 C 7.502,17.223 6.399,17.563 5.135,17.563 C 3.792,17.563 2.696,17.19 1.845,16.444 C 0.994,15.698 0.484,14.648 0.313,13.297 z M 8.938,5.705 C 8.938,4.492 8.618,3.53 7.978,2.818 C 7.337,2.106 6.563,1.75 5.654,1.75 C 4.714,1.75 3.898,2.134 3.208,2.9 C 2.517,3.667 2.172,4.661 2.172,5.88 C 2.172,6.976 2.5,7.865 3.155,8.551 C 3.811,9.235 4.624,9.577 5.595,9.577 C 6.569,9.577 7.369,9.234 7.996,8.551 C 8.624,7.866 8.938,6.918 8.938,5.705 z"
   id="path5" />
</g>
</svg>